PathFileType	4	(X/Y/Z)	/Users/itak/Documents/Research/Walk-IL/dataset/trc/00553_00009.trc
DataRate	CameraRate	NumFrames	NumMarkers	Units	OrigDataRate	OrigDataStartFrame	OrigNumFrames
100.000000	100.000000	4	53	mm	100.000000	121	485
Frame#	Time	RPSI			LPSI			L3			STRN			T10			C7			CLAV			RBAK			LBAK			LSHO			LUPA			LAEL			LAOL			LWTS			LWPS			LFRA			LIFD			LHPS			LHTS			RSHO			RUPA			RAEL			RAOL			RWTS			RWPS			RFRA			RIFD			RHTS			RHPS			RBHD			LFHD			RFHD			LBHD			LHIP			RHIP			RASI			LASI			LKNE			LTHI			LANK			LTIP			LTOE			LMT1			LMT5			LHEE			RKNE			RTHI			RANK			RTIP			RTOE			RMT1			RMT5			RHEE			
		X1	Y1	Z1	X2	Y2	Z2	X3	Y3	Z3	X4	Y4	Z4	X5	Y5	Z5	X6	Y6	Z6	X7	Y7	Z7	X8	Y8	Z8	X9	Y9	Z9	X10	Y10	Z10	X11	Y11	Z11	X12	Y12	Z12	X13	Y13	Z13	X14	Y14	Z14	X15	Y15	Z15	X16	Y16	Z16	X17	Y17	Z17	X18	Y18	Z18	X19	Y19	Z19	X20	Y20	Z20	X21	Y21	Z21	X22	Y22	Z22	X23	Y23	Z23	X24	Y24	Z24	X25	Y25	Z25	X26	Y26	Z26	X27	Y27	Z27	X28	Y28	Z28	X29	Y29	Z29	X30	Y30	Z30	X31	Y31	Z31	X32	Y32	Z32	X33	Y33	Z33	X34	Y34	Z34	X35	Y35	Z35	X36	Y36	Z36	X37	Y37	Z37	X38	Y38	Z38	X39	Y39	Z39	X40	Y40	Z40	X41	Y41	Z41	X42	Y42	Z42	X43	Y43	Z43	X44	Y44	Z44	X45	Y45	Z45	X46	Y46	Z46	X47	Y47	Z47	X48	Y48	Z48	X49	Y49	Z49	X50	Y50	Z50	X51	Y51	Z51	X52	Y52	Z52	X53	Y53	Z53	

122	1.21	-980.6471557617188	1017.637939453125	265.8688659667969	-975.1808471679688	1019.278930664062	131.9138336181641	-971.728271484375	1105.685791015625	194.4382781982422	-741.3963012695312	1291.075317382812	188.4203033447266	-982.2598266601562	1231.400390625	193.9983673095703	-933.1814575195312	1504.721801757812	208.4472808837891	-760.4841918945312	1402.695068359375	190.6109466552734	-1002.247680664062	1379.225463867188	294.1180114746094	-970.3955078125	1452.702270507812	118.1225128173828	-875.79443359375	1477.675903320312	33.57695770263672	-886.8988647460938	1351.882568359375	-46.48857879638672	-861.3286743164062	1128.588623046875	-67.33109283447266	-949.583740234375	1119.66748046875	-18.47142219543457	-768.0325317382812	886.4295043945312	-15.5444507598877	-809.442626953125	862.798095703125	-88.32906341552734	-837.1723022460938	1042.3134765625	-72.62152862548828	-764.0227661132812	715.9275512695312	-22.19130516052246	-801.5274658203125	802.929443359375	-78.95924377441406	-746.8450927734375	811.0345458984375	-36.14083862304688	-869.1681518554688	1463.379516601562	360.3645935058594	-887.697265625	1397.777954101562	427.4439086914062	-895.9290161132812	1109.587280273438	475.846923828125	-951.5509643554688	1093.520629882812	449.1862487792969	-769.3880615234375	884.4447631835938	433.2322692871094	-812.6328735351562	866.0008544921875	501.6636352539062	-886.8232421875	1053.931762695312	483.7949829101562	-763.8558959960938	710.3545532226562	440.456787109375	-744.452880859375	792.2486572265625	447.4649353027344	-797.65576171875	790.4309692382812	498.1838073730469	-847.8348388671875	1683.767700195312	269.3240051269531	-687.804443359375	1703.731811523438	138.2024383544922	-708.52587890625	1701.90380859375	279.9790344238281	-816.4725341796875	1684.694580078125	106.3477554321289	-856.8779296875	940.0208740234375	-0.367244690656662	-861.8209838867188	941.677734375	391.2167663574219	-772.37353515625	967.7733764648438	331.7849731445312	-771.4081420898438	957.1802978515625	54.71979522705078	-857.5879516601562	490.0234680175781	79.49422454833984	-843.8060913085938	653.10498046875	35.28569412231445	-953.8410034179688	31.37144088745117	110.5959396362305	-930.3590698242188	247.1941223144531	86.81809997558594	-743.7030029296875	38.45591735839844	169.7144927978516	-815.6089477539062	41.34272384643555	205.7304840087891	-830.521728515625	34.3927001953125	98.09571075439453	-1023.171203613281	35.2249870300293	165.4144744873047	-844.9796142578125	495.8729248046875	360.0596313476562	-827.4276733398438	787.0361328125	392.5319213867188	-975.2732543945312	38.73782730102539	364.71240234375	-860.0718383789062	352.0181884765625	354.5616149902344	-754.4071655273438	39.77934265136719	335.5675354003906	-815.877685546875	40.7486686706543	291.620361328125	-842.3245239257812	36.07851028442383	392.515869140625	-1028.221557617188	34.81899261474609	306.5311889648438	
123	1.22	-979.945068359375	1017.657409667969	265.2568054199219	-974.5610961914062	1019.2294921875	131.2939147949219	-971.0390014648438	1105.713500976562	193.742919921875	-740.3600463867188	1290.760864257812	187.4808197021484	-981.3271484375	1231.445556640625	193.2404937744141	-931.8442993164062	1504.721069335938	207.5191650390625	-759.3106689453125	1402.428955078125	189.6798248291016	-1001.034851074219	1379.325439453125	293.2322692871094	-969.1574096679688	1452.704345703125	117.1871032714844	-874.5411987304688	1477.5751953125	32.62024688720703	-885.6046142578125	1351.79248046875	-47.45655822753906	-859.802978515625	1128.535400390625	-68.26175689697266	-948.1900634765625	1119.474731445312	-19.65309524536133	-766.1136474609375	886.60205078125	-16.14227867126465	-807.23193359375	862.8458862304688	-88.99112701416016	-835.4798583984375	1042.33740234375	-73.49161529541016	-761.864013671875	716.1150512695312	-22.70924377441406	-799.185302734375	803.0462646484375	-79.61962890625	-744.7830200195312	811.1942138671875	-36.65800857543945	-867.8455200195312	1463.295776367188	359.4324340820312	-886.4329833984375	1397.73193359375	426.5208129882812	-895.3087158203125	1109.569213867188	474.9309692382812	-950.9470825195312	1093.624267578125	448.3104553222656	-769.0939331054688	884.2535400390625	432.39306640625	-812.3807373046875	865.8822021484375	500.8521423339844	-886.24267578125	1053.88525390625	482.8825073242188	-763.7930297851562	710.169677734375	439.6327819824219	-744.2564697265625	792.02490234375	446.6282653808594	-797.501953125	790.2625122070312	497.3561096191406	-846.0858764648438	1683.70703125	268.4105224609375	-686.0901489257812	1703.3095703125	137.2236938476562	-706.686279296875	1701.5302734375	279.0869445800781	-814.8406372070312	1684.588989257812	105.4275054931641	-856.45458984375	939.7573852539062	-1.201769828796387	-861.007568359375	941.6873168945312	390.4384460449219	-771.6032104492188	967.7369384765625	330.8327941894531	-770.920654296875	956.8721923828125	53.88764190673828	-857.398193359375	489.8314208984375	78.86275482177734	-843.5767211914062	652.927734375	34.49685287475586	-953.8651123046875	31.28580856323242	110.5439682006836	-930.3492431640625	247.0265808105469	86.54405212402344	-743.75439453125	38.44815063476562	169.7321929931641	-815.6309814453125	41.34913635253906	205.7050933837891	-830.5186157226562	34.39503860473633	98.08594512939453	-1023.214904785156	35.1657600402832	165.3443756103516	-842.4860229492188	495.8609313964844	359.5207824707031	-826.249755859375	787.0670776367188	391.779296875	-975.0939331054688	39.1878547668457	364.5762023925781	-858.0704956054688	351.8967895507812	354.1979675292969	-754.4263916015625	39.86385345458984	335.5119934082031	-815.9083251953125	40.70394134521484	291.5297546386719	-842.2655639648438	36.16943359375	392.383544921875	-1028.133666992188	35.22871017456055	306.4859313964844	
124	1.23	-979.2537231445312	1017.680847167969	264.6470336914062	-973.8941650390625	1019.194458007812	130.6711120605469	-970.3091430664062	1105.735961914062	193.0521087646484	-739.2852172851562	1290.46875	186.5704803466797	-980.3755493164062	1231.492309570312	192.4833831787109	-930.4865112304688	1504.708374023438	206.61767578125	-758.1016845703125	1402.172119140625	188.7645568847656	-999.8028564453125	1379.414306640625	292.3751525878906	-967.8999633789062	1452.686889648438	116.2870864868164	-873.266845703125	1477.47412109375	31.69432258605957	-884.3034057617188	1351.693359375	-48.39631271362305	-858.2721557617188	1128.4775390625	-69.19647979736328	-946.7760009765625	1119.270141601562	-20.8197021484375	-764.1243286132812	886.7880859375	-16.74360656738281	-804.9652709960938	862.92138671875	-89.67701721191406	-833.7716064453125	1042.366943359375	-74.36934661865234	-759.743408203125	716.2861328125	-23.17142105102539	-796.7740478515625	803.1868286132812	-80.29907989501953	-742.7589721679688	811.337158203125	-37.11913299560547	-866.4999389648438	1463.188598632812	358.5318298339844	-885.1343383789062	1397.677734375	425.6174926757812	-894.6557006835938	1109.5341796875	474.0310668945312	-950.2896118164062	1093.70458984375	447.4224853515625	-768.7234497070312	884.0824584960938	431.5603332519531	-812.091552734375	865.7631225585938	500.0501403808594	-885.6509399414062	1053.846923828125	482.0314636230469	-763.65966796875	709.97705078125	438.7907409667969	-744.0099487304688	791.7942504882812	445.8073425292969	-797.3003540039062	790.086181640625	496.5535583496094	-844.3316040039062	1683.6396484375	267.5107727050781	-684.3729248046875	1702.885498046875	136.2466583251953	-704.8440551757812	1701.14892578125	278.1884765625	-813.214599609375	1684.47705078125	104.5219879150391	-855.959228515625	939.4990234375	-1.979356288909912	-860.2242431640625	941.6923217773438	389.6809692382812	-770.8922119140625	967.7025146484375	329.9418029785156	-770.3599243164062	956.569091796875	53.11149597167969	-857.213623046875	489.6341247558594	78.24332427978516	-843.3792114257812	652.7572631835938	33.69297790527344	-953.9027099609375	31.21734237670898	110.473762512207	-930.3173217773438	246.8689880371094	86.27031707763672	-743.8006591796875	38.43936538696289	169.7580871582031	-815.6493530273438	41.36673355102539	205.6773376464844	-830.5169677734375	34.39665985107422	98.07946014404297	-1023.262145996094	35.10292816162109	165.2701721191406	-839.686279296875	495.8681945800781	358.9591369628906	-825.0197143554688	787.0966186523438	391.0242614746094	-974.913818359375	39.71833801269531	364.4520263671875	-855.8102416992188	351.7844848632812	353.8370971679688	-754.4639892578125	39.98375701904297	335.4385681152344	-815.9126586914062	40.67731094360352	291.4136962890625	-842.2286376953125	36.29969024658203	392.2212524414062	-1028.023803710938	35.71109771728516	306.4166564941406	
125	1.24	-978.5799560546875	1017.704833984375	264.0342712402344	-973.1779174804688	1019.175537109375	130.0437774658203	-969.5355834960938	1105.756225585938	192.3607330322266	-738.173583984375	1290.202514648438	185.6957092285156	-979.3976440429688	1231.540283203125	191.7250366210938	-929.1051635742188	1504.68310546875	205.7427215576172	-756.850830078125	1401.928955078125	187.870361328125	-998.5517578125	1379.496215820312	291.5469970703125	-966.6121826171875	1452.648559570312	115.4198760986328	-871.9611206054688	1477.371459960938	30.80367279052734	-882.9893798828125	1351.58837890625	-49.30840682983398	-856.7333984375	1128.41357421875	-70.12990570068359	-945.34033203125	1119.058471679688	-21.96572303771973	-762.0654296875	886.9924926757812	-17.34461784362793	-802.646728515625	863.0272216796875	-90.38431549072266	-832.044677734375	1042.401000976562	-75.24728393554688	-757.6986694335938	716.4143676757812	-23.54388999938965	-794.2974853515625	803.3485107421875	-80.98815155029297	-740.8114013671875	811.43701171875	-37.49014663696289	-865.1328735351562	1463.068603515625	357.6574401855469	-883.8067626953125	1397.619018554688	424.7362670898438	-893.9632568359375	1109.490966796875	473.1500549316406	-949.574951171875	1093.762817382812	446.5216674804688	-768.2687377929688	883.9345092773438	430.7431335449219	-811.7588500976562	865.6429443359375	499.2586059570312	-885.0431518554688	1053.82177734375	481.2403564453125	-763.4666748046875	709.776123046875	437.9482116699219	-743.7184448242188	791.5552368164062	445.0099792480469	-797.0569458007812	789.9066772460938	495.7807006835938	-842.5714721679688	1683.5615234375	266.6308288574219	-682.65185546875	1702.461791992188	135.2742919921875	-703.0036010742188	1700.761474609375	277.2745666503906	-811.5844116210938	1684.354248046875	103.632080078125	-855.3909301757812	939.2423095703125	-2.697102785110474	-859.4837036132812	941.691650390625	388.9521484375	-770.251708984375	967.6669921875	329.1253662109375	-769.7247924804688	956.2671508789062	52.39443588256836	-857.0537719726562	489.4338073730469	77.64690399169922	-843.2265014648438	652.58984375	32.88448715209961	-953.944580078125	31.15935897827148	110.3957901000977	-930.2664794921875	246.7274017333984	86.00035095214844	-743.83642578125	38.43120956420898	169.79052734375	-815.6651000976562	41.3964729309082	205.6485137939453	-830.5206298828125	34.39450454711914	98.07389068603516	-1023.310302734375	35.03636932373047	165.1901092529297	-836.5333251953125	495.9013671875	358.3682861328125	-823.7167358398438	787.1253051757812	390.2615966796875	-974.7421875	40.34015274047852	364.3442993164062	-853.25341796875	351.6766052246094	353.47607421875	-754.520263671875	40.14739608764648	335.345458984375	-815.8953857421875	40.67661666870117	291.2719116210938	-842.2257080078125	36.48299789428711	392.0293273925781	-1027.894775390625	36.29555130004883	306.32763671875	
